<svg xmlns="http://www.w3.org/2000/svg" width="792" height="792" viewBox="0 0 209.55 209.55"><path fill="#e80088" d="M119.257 166.414 86.28 147.323l32.977-18.899z"/><path fill="#00dffc" d="M44.907 166.244 11.93 147.153l32.977-18.899z"/><path fill="#e80088" d="M44.737 123.566 11.76 104.475l32.977-18.899zm74.25-42.781L86.01 61.694l32.977-18.899z"/><path fill="#480048" d="M81.887 59.358 48.91 40.267l32.977-18.899z"/><path fill="#e80088" d="M45.027 80.663 12.05 61.572l32.977-18.899z"/><path fill="#480048" d="M81.767 187.674 48.79 168.583l32.977-18.899z"/><path fill="#00dffc" d="m47.677 80.54 32.977-19.09-32.977-18.9z"/><path fill="#480048" d="M10.577 102.09 43.554 83 10.577 64.1zm.13 42.854 32.977-19.091-32.977-18.899z"/><path fill="#e80088" d="m47.677 166.244 32.977-19.091-32.977-18.899z"/><path fill="#00dffc" d="m84.777 187.924 32.977-19.091-32.977-18.899z"/><path fill="#480048" d="m84.657 59.236 32.977-19.092-32.977-18.898z"/><path fill="#480048" fill-opacity=".867" d="m129.527 209.404 32.977-19.091-32.977-18.899z"/><path fill="#00dffc" d="m129.797 166.904 32.977-19.091-32.977-18.899z"/><path fill="#e80088" d="m129.797 123.618 32.977-19.091-32.977-18.899zm33.85 64.416-32.977-19.091 32.977-18.899z"/><path fill="#480048" fill-opacity=".867" d="m163.987 145.436-32.977-19.091 32.977-18.899z"/><path fill="#00dffc" d="M164.337 102.493 131.36 83.402l32.977-18.899z"/><path fill="#480048" fill-opacity=".867" d="m129.797 81.107 32.977-19.091-32.977-18.899z"/><path fill="#e80088" d="M164.337 59.982 131.36 40.891l32.977-18.899z"/><path fill="#00dffc" d="m166.987 59.538 32.977-19.092-32.977-18.898z"/><path fill="#480048" fill-opacity=".867" d="M201.687 37.988 168.71 18.897 201.687-.002zm-34.94 107.747 32.977-19.091-32.977-18.899z"/><path fill="#e80088" d="m201.437 124.186-32.977-19.091 32.977-18.899z"/></svg>